<?xml version="1.0" encoding="utf-8"?>
<!-- Generator: Adobe Illustrator 21.0.0, SVG Export Plug-In . SVG Version: 6.00 Build 0)  -->
<svg version="1.1" id="US_UK_Download_on_the" xmlns="http://www.w3.org/2000/svg" xmlns:xlink="http://www.w3.org/1999/xlink"
	 x="0px" y="0px" viewBox="0 0 236.2 70" style="enable-background:new 0 0 236.2 70;" xml:space="preserve">
<style type="text/css">
	.st0{fill:#FFFFFF;}
</style>
<g>
	<g>
		<path class="st0" d="M227.8,0H8.3C3.7,0,0,3.7,0,8.3v53.4C0,66.3,3.7,70,8.3,70h219.6c4.6,0,8.4-3.7,8.4-8.3V8.3
			C236.2,3.7,232.4,0,227.8,0z M227.8,68.4H8.3c-3.7,0-6.7-3-6.7-6.7V8.3c0-3.7,3-6.7,6.7-6.7h219.6c3.7,0,6.7,3,6.7,6.7l0,53.5
			C234.6,65.4,231.6,68.4,227.8,68.4z"/>
	</g>
	<g>
		<g>
			<path class="st0" d="M52.7,34.6c-0.1-5.6,4.6-8.4,4.8-8.5c-2.6-3.9-6.7-4.4-8.2-4.4c-3.4-0.4-6.8,2.1-8.5,2.1c-1.8,0-4.5-2-7.4-2
				c-3.7,0.1-7.2,2.2-9.2,5.6c-4,6.9-1,17,2.8,22.5c1.9,2.7,4.1,5.8,7,5.6c2.8-0.1,3.9-1.8,7.3-1.8c3.4,0,4.4,1.8,7.4,1.7
				c3.1,0,5-2.7,6.8-5.5c2.2-3.1,3.1-6.2,3.1-6.3C58.6,43.6,52.8,41.4,52.7,34.6z"/>
			<path class="st0" d="M47.1,18c1.5-1.9,2.6-4.5,2.3-7.2c-2.2,0.1-5,1.5-6.6,3.4c-1.4,1.6-2.7,4.4-2.3,6.9
				C43,21.4,45.5,19.9,47.1,18z"/>
		</g>
	</g>
	<g>
		<path class="st0" d="M93.9,55.1h-4l-2.2-6.8h-7.6l-2.1,6.8h-3.9l7.5-23.3h4.6L93.9,55.1z M87.1,45.4l-2-6.1
			c-0.2-0.6-0.6-2.1-1.2-4.4h-0.1c-0.2,1-0.6,2.5-1.1,4.4l-1.9,6.1H87.1z"/>
		<path class="st0" d="M113.2,46.5c0,2.9-0.8,5.1-2.3,6.8c-1.4,1.5-3.1,2.2-5.1,2.2c-2.2,0-3.8-0.8-4.8-2.4h-0.1V62h-3.7V43.9
			c0-1.8,0-3.6-0.1-5.5h3.3l0.2,2.7h0.1c1.2-2,3.1-3,5.7-3c2,0,3.6,0.8,5,2.3C112.5,41.9,113.2,44,113.2,46.5z M109.4,46.7
			c0-1.6-0.4-3-1.1-4c-0.8-1.1-1.9-1.7-3.2-1.7c-0.9,0-1.8,0.3-2.5,0.9c-0.7,0.6-1.2,1.4-1.5,2.4c-0.1,0.5-0.2,0.8-0.2,1.1v2.8
			c0,1.2,0.4,2.3,1.1,3.1c0.7,0.8,1.7,1.3,2.9,1.3c1.4,0,2.5-0.5,3.3-1.6C109,49.9,109.4,48.4,109.4,46.7z"/>
		<path class="st0" d="M132.5,46.5c0,2.9-0.8,5.1-2.3,6.8c-1.4,1.5-3.1,2.2-5.1,2.2c-2.2,0-3.8-0.8-4.8-2.4h-0.1V62h-3.7V43.9
			c0-1.8,0-3.6-0.1-5.5h3.3l0.2,2.7h0.1c1.2-2,3.1-3,5.7-3c2,0,3.6,0.8,5,2.3C131.8,41.9,132.5,44,132.5,46.5z M128.7,46.7
			c0-1.6-0.4-3-1.1-4c-0.8-1.1-1.9-1.7-3.2-1.7c-0.9,0-1.8,0.3-2.5,0.9c-0.7,0.6-1.2,1.4-1.5,2.4c-0.1,0.5-0.2,0.8-0.2,1.1v2.8
			c0,1.2,0.4,2.3,1.1,3.1c0.7,0.8,1.7,1.3,2.9,1.3c1.4,0,2.5-0.5,3.3-1.6C128.3,49.9,128.7,48.4,128.7,46.7z"/>
		<path class="st0" d="M154.1,48.6c0,2-0.7,3.6-2.1,4.8c-1.5,1.4-3.6,2-6.3,2c-2.5,0-4.5-0.5-6-1.5l0.9-3.1c1.6,1,3.4,1.5,5.4,1.5
			c1.4,0,2.5-0.3,3.3-1c0.8-0.6,1.2-1.5,1.2-2.5c0-0.9-0.3-1.7-1-2.4c-0.6-0.6-1.7-1.2-3.2-1.8c-4.1-1.5-6.1-3.7-6.1-6.7
			c0-1.9,0.7-3.5,2.1-4.7c1.4-1.2,3.3-1.8,5.7-1.8c2.1,0,3.9,0.4,5.3,1.1l-0.9,3c-1.3-0.7-2.8-1.1-4.5-1.1c-1.3,0-2.3,0.3-3.1,1
			c-0.6,0.6-0.9,1.3-0.9,2.1c0,0.9,0.4,1.7,1.1,2.3c0.6,0.6,1.8,1.2,3.4,1.8c2,0.8,3.5,1.8,4.4,2.8C153.6,45.6,154.1,47,154.1,48.6z
			"/>
		<path class="st0" d="M166.4,41.1h-4.1v8.2c0,2.1,0.7,3.1,2.2,3.1c0.7,0,1.2-0.1,1.7-0.2l0.1,2.8c-0.7,0.3-1.7,0.4-2.9,0.4
			c-1.5,0-2.6-0.4-3.5-1.3c-0.8-0.9-1.2-2.4-1.2-4.5v-8.5h-2.5v-2.8h2.5v-3.1l3.7-1.1v4.2h4.1C166.4,38.3,166.4,41.1,166.4,41.1z"/>
		<path class="st0" d="M185,46.6c0,2.6-0.7,4.7-2.2,6.4c-1.5,1.7-3.6,2.6-6.2,2.6c-2.5,0-4.4-0.8-5.9-2.5c-1.5-1.6-2.2-3.7-2.2-6.2
			c0-2.6,0.8-4.7,2.3-6.4c1.5-1.7,3.5-2.5,6.1-2.5c2.5,0,4.4,0.8,5.9,2.5C184.2,42,185,44.1,185,46.6z M181.1,46.7
			c0-1.5-0.3-2.9-1-4c-0.8-1.3-1.9-2-3.3-2c-1.5,0-2.6,0.7-3.4,2c-0.7,1.1-1,2.5-1,4.1c0,1.5,0.3,2.9,1,4c0.8,1.3,1.9,2,3.4,2
			c1.4,0,2.5-0.7,3.3-2C180.7,49.6,181.1,48.3,181.1,46.7z"/>
		<path class="st0" d="M197.1,41.6c-0.4-0.1-0.8-0.1-1.2-0.1c-1.3,0-2.3,0.5-3,1.5c-0.6,0.9-0.9,2-0.9,3.3v8.8h-3.7l0-11.5
			c0-1.9,0-3.7-0.1-5.3h3.2l0.1,3.2h0.1c0.4-1.1,1-2,1.9-2.7c0.8-0.6,1.7-0.9,2.7-0.9c0.3,0,0.7,0,0.9,0.1
			C197.1,38.1,197.1,41.6,197.1,41.6z"/>
		<path class="st0" d="M213.8,45.9c0,0.7,0,1.2-0.1,1.7h-11.2c0,1.7,0.6,2.9,1.6,3.8c0.9,0.8,2.2,1.2,3.7,1.2c1.7,0,3.2-0.3,4.5-0.8
			l0.6,2.6c-1.6,0.7-3.5,1-5.6,1c-2.6,0-4.6-0.8-6.1-2.3c-1.5-1.5-2.2-3.6-2.2-6.2c0-2.5,0.7-4.6,2.1-6.3c1.4-1.8,3.4-2.7,5.9-2.7
			c2.4,0,4.3,0.9,5.5,2.7C213.3,42.1,213.8,43.8,213.8,45.9z M210.2,45c0-1.1-0.2-2.1-0.7-2.9c-0.6-1-1.6-1.6-3-1.6
			c-1.2,0-2.2,0.5-3,1.5c-0.6,0.8-1,1.8-1.1,2.9L210.2,45L210.2,45z"/>
	</g>
	<g>
		<g>
			<path class="st0" d="M85.8,17.5c0,2.1-0.6,3.6-1.9,4.7c-1.1,1-2.8,1.4-4.9,1.4c-1,0-1.9,0-2.7-0.1V12.2c1-0.2,2-0.2,3.2-0.2
				c2,0,3.5,0.4,4.5,1.3C85.3,14.3,85.8,15.7,85.8,17.5z M83.9,17.6c0-1.3-0.4-2.4-1.1-3.1c-0.7-0.7-1.7-1.1-3.1-1.1
				c-0.6,0-1.1,0-1.5,0.1v8.6c0.2,0,0.6,0.1,1.2,0.1c1.4,0,2.5-0.4,3.2-1.2S83.9,19.1,83.9,17.6z"/>
			<path class="st0" d="M96.1,19.3c0,1.3-0.4,2.3-1.1,3.1c-0.8,0.8-1.8,1.3-3,1.3c-1.2,0-2.2-0.4-2.9-1.2c-0.7-0.8-1.1-1.8-1.1-3
				c0-1.3,0.4-2.3,1.1-3.1s1.7-1.2,3-1.2c1.2,0,2.2,0.4,2.9,1.2C95.7,17.1,96.1,18.1,96.1,19.3z M94.2,19.4c0-0.8-0.2-1.4-0.5-2
				c-0.4-0.7-0.9-1-1.6-1c-0.7,0-1.3,0.3-1.7,1c-0.3,0.5-0.5,1.2-0.5,2c0,0.8,0.2,1.4,0.5,2c0.4,0.7,1,1,1.7,1c0.7,0,1.2-0.3,1.6-1
				C94,20.8,94.2,20.1,94.2,19.4z"/>
			<path class="st0" d="M109.8,15.3l-2.6,8.2h-1.7l-1.1-3.6c-0.3-0.9-0.5-1.8-0.7-2.7h0c-0.2,0.9-0.4,1.8-0.7,2.7l-1.1,3.6h-1.7
				l-2.4-8.2h1.9l0.9,3.9c0.2,0.9,0.4,1.8,0.6,2.6h0c0.1-0.7,0.4-1.6,0.7-2.6l1.2-3.9h1.5l1.1,3.9c0.3,0.9,0.5,1.8,0.7,2.7h0.1
				c0.1-0.8,0.3-1.8,0.6-2.7l1-3.9L109.8,15.3L109.8,15.3z"/>
			<path class="st0" d="M119.3,23.5h-1.8v-4.7c0-1.5-0.6-2.2-1.7-2.2c-0.5,0-1,0.2-1.3,0.6c-0.3,0.4-0.5,0.9-0.5,1.4v4.9h-1.8v-5.9
				c0-0.7,0-1.5-0.1-2.4h1.6l0.1,1.3h0.1c0.2-0.4,0.5-0.7,1-1c0.5-0.3,1.1-0.5,1.7-0.5c0.8,0,1.4,0.2,1.9,0.7c0.6,0.6,1,1.5,1,2.7
				V23.5z"/>
			<path class="st0" d="M124.4,23.5h-1.8v-12h1.8V23.5z"/>
			<path class="st0" d="M135.2,19.3c0,1.3-0.4,2.3-1.1,3.1c-0.8,0.8-1.8,1.3-3,1.3c-1.2,0-2.2-0.4-2.9-1.2c-0.7-0.8-1.1-1.8-1.1-3
				c0-1.3,0.4-2.3,1.1-3.1s1.7-1.2,3-1.2c1.2,0,2.2,0.4,2.9,1.2C134.8,17.1,135.2,18.1,135.2,19.3z M133.3,19.4c0-0.8-0.2-1.4-0.5-2
				c-0.4-0.7-0.9-1-1.6-1c-0.7,0-1.3,0.3-1.7,1c-0.3,0.5-0.5,1.2-0.5,2c0,0.8,0.2,1.4,0.5,2c0.4,0.7,1,1,1.7,1c0.7,0,1.2-0.3,1.6-1
				C133.1,20.8,133.3,20.1,133.3,19.4z"/>
			<path class="st0" d="M144.1,23.5h-1.6l-0.1-1h-0.1c-0.6,0.8-1.4,1.1-2.4,1.1c-0.8,0-1.4-0.3-1.9-0.7c-0.4-0.5-0.6-1-0.6-1.7
				c0-1,0.4-1.8,1.3-2.3c0.8-0.5,2-0.8,3.6-0.8V18c0-1.1-0.6-1.6-1.7-1.6c-0.8,0-1.5,0.2-2.2,0.6l-0.4-1.2c0.8-0.5,1.7-0.7,2.8-0.7
				c2.2,0,3.2,1.1,3.2,3.4v3C144,22.4,144,23,144.1,23.5z M142.2,20.7v-1.3c-2,0-3,0.5-3,1.7c0,0.4,0.1,0.8,0.4,1
				c0.2,0.2,0.5,0.3,0.9,0.3c0.4,0,0.8-0.1,1.1-0.4c0.3-0.3,0.6-0.6,0.6-1C142.2,20.9,142.2,20.8,142.2,20.7z"/>
			<path class="st0" d="M154.5,23.5h-1.6l-0.1-1.3h-0.1c-0.5,1-1.4,1.5-2.6,1.5c-1,0-1.8-0.4-2.5-1.2s-1-1.8-1-3
				c0-1.3,0.4-2.4,1.1-3.2c0.7-0.8,1.5-1.2,2.5-1.2c1.1,0,1.9,0.4,2.3,1.1h0v-4.7h1.8v9.8C154.4,22.1,154.5,22.8,154.5,23.5z
				 M152.6,20v-1.4c0-0.2,0-0.4-0.1-0.6c-0.1-0.4-0.3-0.8-0.7-1.1c-0.3-0.3-0.8-0.4-1.2-0.4c-0.7,0-1.2,0.3-1.6,0.8
				c-0.4,0.5-0.6,1.2-0.6,2.1c0,0.8,0.2,1.5,0.6,2c0.4,0.5,0.9,0.8,1.6,0.8c0.6,0,1.1-0.2,1.4-0.7C152.4,21.1,152.6,20.6,152.6,20z"
				/>
			<path class="st0" d="M170.2,19.3c0,1.3-0.4,2.3-1.1,3.1c-0.8,0.8-1.8,1.3-3,1.3c-1.2,0-2.2-0.4-2.9-1.2c-0.7-0.8-1.1-1.8-1.1-3
				c0-1.3,0.4-2.3,1.1-3.1s1.7-1.2,3-1.2c1.2,0,2.2,0.4,2.9,1.2C169.8,17.1,170.2,18.1,170.2,19.3z M168.3,19.4c0-0.8-0.2-1.4-0.5-2
				c-0.4-0.7-0.9-1-1.6-1c-0.7,0-1.3,0.3-1.7,1c-0.3,0.5-0.5,1.2-0.5,2c0,0.8,0.2,1.4,0.5,2c0.4,0.7,1,1,1.7,1c0.7,0,1.3-0.3,1.6-1
				C168.1,20.8,168.3,20.1,168.3,19.4z"/>
			<path class="st0" d="M180,23.5h-1.8v-4.7c0-1.5-0.6-2.2-1.7-2.2c-0.5,0-1,0.2-1.3,0.6c-0.3,0.4-0.5,0.9-0.5,1.4v4.9h-1.8v-5.9
				c0-0.7,0-1.5-0.1-2.4h1.6l0.1,1.3h0.1c0.2-0.4,0.5-0.7,1-1c0.5-0.3,1.1-0.5,1.7-0.5c0.8,0,1.4,0.2,1.9,0.7c0.6,0.6,1,1.5,1,2.7
				V23.5z"/>
			<path class="st0" d="M192.4,16.6h-2v4c0,1,0.4,1.5,1.1,1.5c0.3,0,0.6,0,0.8-0.1l0,1.4c-0.4,0.1-0.8,0.2-1.4,0.2
				c-0.7,0-1.3-0.2-1.7-0.7c-0.4-0.4-0.6-1.2-0.6-2.2v-4.2h-1.2v-1.4h1.2v-1.5l1.8-0.5v2.1h2L192.4,16.6L192.4,16.6z"/>
			<path class="st0" d="M202.1,23.5h-1.8v-4.7c0-1.5-0.6-2.2-1.7-2.2c-0.9,0-1.4,0.4-1.8,1.3c-0.1,0.2-0.1,0.4-0.1,0.7v5h-1.8v-12
				h1.8v5h0c0.6-0.9,1.4-1.4,2.5-1.4c0.8,0,1.4,0.2,1.9,0.7c0.6,0.6,0.9,1.5,0.9,2.8C202.1,18.6,202.1,23.5,202.1,23.5z"/>
			<path class="st0" d="M212.1,19c0,0.3,0,0.6-0.1,0.8h-5.5c0,0.8,0.3,1.4,0.8,1.9c0.5,0.4,1.1,0.6,1.8,0.6c0.8,0,1.6-0.1,2.2-0.4
				l0.3,1.3c-0.8,0.3-1.7,0.5-2.8,0.5c-1.3,0-2.3-0.4-3-1.1c-0.7-0.8-1.1-1.8-1.1-3c0-1.2,0.3-2.3,1-3.1c0.7-0.9,1.7-1.3,2.9-1.3
				c1.2,0,2.1,0.4,2.7,1.3C211.9,17.1,212.1,18,212.1,19z M210.4,18.5c0-0.5-0.1-1-0.4-1.4c-0.3-0.5-0.8-0.8-1.5-0.8
				c-0.6,0-1.1,0.2-1.5,0.7c-0.3,0.4-0.5,0.9-0.5,1.4C206.5,18.5,210.4,18.5,210.4,18.5z"/>
		</g>
	</g>
</g>
</svg>
