<?xml version="1.0" encoding="utf-8"?>
<!-- Generator: Adobe Illustrator 21.0.0, SVG Export Plug-In . SVG Version: 6.00 Build 0)  -->
<svg version="1.1" id="artwork" xmlns="http://www.w3.org/2000/svg" xmlns:xlink="http://www.w3.org/1999/xlink" x="0px" y="0px"
	 viewBox="0 0 235.8 70" style="enable-background:new 0 0 235.8 70;" xml:space="preserve">
<style type="text/css">
	.st0{fill:#FFFFFF;stroke:#FFFFFF;stroke-width:0.2;stroke-miterlimit:10;}
	.st1{fill:#FFFFFF;}
	.st2{fill:url(#SVGID_1_);}
	.st3{fill:url(#SVGID_2_);}
	.st4{fill:url(#SVGID_3_);}
	.st5{fill:url(#SVGID_4_);}
	.st6{opacity:0.2;enable-background:new    ;}
	.st7{opacity:0.12;enable-background:new    ;}
	.st8{opacity:0.25;fill:#FFFFFF;enable-background:new    ;}
</style>
<title>download_btn_google_play</title>
<path d="M8.7,0.2h218.2c4.9,0,8.7,3.8,8.7,8.7v52.4c0,4.9-3.8,8.7-8.7,8.7H8.7C3.8,70,0,66.2,0,61.3V8.9C0,4,3.8,0.2,8.7,0.2z"/>
<path d="M226.9,1.6c4,0,7.3,3.3,7.3,7.3v52.4c0,4-3.3,7.3-7.3,7.3H8.7c-4,0-7.3-3.3-7.3-7.3l0,0V8.9c0-4,3.3-7.3,7.3-7.3l0,0
	L226.9,1.6 M226.9,0.2H8.7C3.8,0.2,0,4,0,8.9v52.4C0,66.2,3.8,70,8.7,70h218.2c4.9,0,8.7-3.8,8.7-8.7V8.9
	C235.7,4,231.8,0.2,226.9,0.2z"/>
<path class="st0" d="M82.7,18c0,1.2-0.3,2.6-1.4,3.5c-1,1-2.4,1.6-3.8,1.6c-3,0-5.4-2.4-5.4-5.4c0,0,0,0,0-0.2c0-3,2.3-5.4,5.2-5.4
	c0,0,0,0,0.2,0c0.7,0,1.4,0.2,2.1,0.3c0.7,0.2,1.2,0.7,1.6,1.2l-0.9,0.9c-0.7-0.9-1.7-1.2-2.8-1.2c-2.3,0-4,1.7-4,4v0.2
	c0,2.3,1.7,4.2,4,4.2c1,0,2.1-0.3,3-1.2c0.5-0.5,0.9-1.4,0.9-2.1h-3.8v-1h5.1C82.7,17.5,82.7,17.8,82.7,18z"/>
<path class="st0" d="M90.8,13.6h-4.7v3.3h4.4v1.2h-4.4v3.3h4.7v1.4h-6.1V12.4h6.1V13.6z"/>
<path class="st0" d="M96.5,22.9h-1.4v-9.3h-3v-1.2h7.3v1.2h-3V22.9z"/>
<path class="st0" d="M104.6,22.9V12.4h1.4v10.5H104.6z"/>
<path class="st0" d="M111.9,22.9h-1.4v-9.3h-3v-1.2h7.2v1.2h-3v9.3H111.9z"/>
<path class="st0" d="M128.5,21.5c-2.1,2.1-5.6,2.1-7.7,0c-1-1-1.6-2.4-1.6-3.8s0.5-2.8,1.6-3.8c2.1-2.1,5.6-2.1,7.7,0l0,0
	c1,1,1.6,2.4,1.6,3.8S129.5,20.4,128.5,21.5z M121.8,20.6c1.6,1.6,4.2,1.6,5.8,0c0.7-0.9,1.2-1.9,1.2-3s-0.3-2.3-1.2-3
	c-1.6-1.6-4.2-1.6-5.8,0c-0.7,0.9-1.2,1.9-1,3C120.6,18.7,121,19.9,121.8,20.6z"/>
<path class="st0" d="M132,22.9V12.4h1.6l5.1,8.2l0,0v-2.1v-6.1h1.4v10.5h-1.4l-5.4-8.6l0,0v2.1v6.5H132z"/>
<path class="st1" d="M118.9,38.2c-4,0-7.3,3.3-7.3,7.5c0,4,3.3,7.3,7.5,7.3c4,0,7.3-3.3,7.3-7.3s-3.1-7.3-7.2-7.5
	C119.1,38.1,119.1,38.1,118.9,38.2z M118.9,50.1c-2.4,0.2-4.7-1.7-4.9-4.2c-0.2-2.4,1.7-4.7,4.2-4.9c2.4-0.2,4.7,1.7,4.9,4.2
	c0,0.2,0,0.2,0,0.3C123.2,48,121.5,49.9,118.9,50.1C119.1,50.1,119.1,50.1,118.9,50.1z M102.6,38.2c-4,0-7.3,3.3-7.3,7.5
	s3.3,7.3,7.5,7.3c4,0,7.3-3.3,7.3-7.3s-3.1-7.3-7.2-7.5C102.8,38.1,102.8,38.1,102.6,38.2L102.6,38.2z M102.6,50.1
	c-2.4,0.2-4.7-1.7-4.9-4.2c-0.2-2.4,1.7-4.7,4.2-4.9c2.4-0.2,4.7,1.7,4.9,4.2c0,0.2,0,0.2,0,0.3C107,48,105.1,49.9,102.6,50.1
	C102.8,50.1,102.6,50.1,102.6,50.1L102.6,50.1z M83.3,40.5v3.1h7.5c-0.2,1.4-0.7,2.8-1.7,4c-1.6,1.6-3.7,2.4-5.8,2.3
	c-4.7,0-8.4-3.7-8.4-8.4s3.7-8.4,8.4-8.4c2.1,0,4.2,0.7,5.8,2.3l2.3-2.3c-2.1-2.1-4.9-3.3-7.9-3.3c-6.3-0.2-11.7,4.7-12,11
	c-0.2,6.3,4.7,11.7,11,12c0.3,0,0.5,0,0.9,0c3,0.2,5.9-1,8-3.3c1.7-2.1,2.8-4.7,2.8-7.3c0-0.7,0-1.4-0.2-1.9L83.3,40.5z M162.5,42.9
	c-0.9-2.8-3.5-4.5-6.3-4.7c-3.8,0-7,3.1-7,7c0,0.2,0,0.3,0,0.5c0,4,3.1,7.3,7.2,7.3c0.2,0,0.2,0,0.3,0c2.4,0,4.9-1.2,6.1-3.3
	l-2.4-1.7c-0.7,1.2-2.1,2.1-3.7,2.1c-1.6,0-3-0.9-3.7-2.3l10-4.2L162.5,42.9z M152.2,45.4c-0.2-2.3,1.6-4.2,3.8-4.4l0,0
	c1.2,0,2.3,0.5,2.8,1.6L152.2,45.4z M144.2,52.5h3.3V30.7h-3.3V52.5z M139,39.8L139,39.8c-1-1-2.6-1.7-4-1.7c-4,0.2-7.3,3.7-7,7.9
	c0.2,3.8,3.3,6.8,7,7c1.6,0,3-0.7,3.8-1.7h0.2v1c0,2.8-1.6,4.4-4,4.4c-1.7,0-3.1-1-3.7-2.6l-2.8,1.2c1,2.6,3.7,4.4,6.6,4.4
	c3.8,0,7-2.3,7-7.7V38.6h-3v1.2H139z M135.1,50.1c-2.4-0.2-4.4-2.4-4.2-4.9c0.2-2.3,1.9-3.8,4.2-4.2c2.3,0.2,4,2.1,4,4.4
	c0,0,0,0,0,0.2c0.2,2.3-1.6,4.4-3.8,4.5C135.3,50.1,135.3,50.1,135.1,50.1L135.1,50.1z M177.7,30.7h-7.9v21.8h3.3v-8.2h4.5
	c3.7,0.3,7-2.6,7.3-6.3c0.3-3.7-2.6-7-6.3-7.3C178.4,30.7,178.1,30.7,177.7,30.7z M177.7,41.2h-4.5v-7.5h4.7c2.1,0,3.7,1.7,3.7,3.7
	C181.6,39.6,179.8,41.2,177.7,41.2L177.7,41.2z M197.8,38.1c-2.4-0.2-4.7,1.2-5.8,3.3l3,1.2c0.5-1,1.7-1.7,3-1.6
	c1.7-0.2,3.3,1,3.5,2.8l0,0V44c-1-0.5-2.3-0.9-3.3-0.9c-3.1,0-6.3,1.7-6.3,4.9c0.2,2.8,2.4,4.9,5.2,4.9h0.2c1.7,0.2,3.3-0.7,4.2-2.1
	h0.2v1.7h3.1v-8.4C204.6,40.3,201.6,38.1,197.8,38.1L197.8,38.1z M197.4,50.1c-1,0-2.6-0.5-2.6-1.9c0-1.7,1.9-2.3,3.5-2.3
	c1,0,2.1,0.2,3,0.7C201.1,48.5,199.5,50.1,197.4,50.1L197.4,50.1z M215.9,38.6l-3.7,9.4h-0.2l-3.8-9.4h-3.5l5.8,13.3l-3.3,7.3h3.3
	l8.9-20.6H215.9z M186.6,52.5h3.3V30.7h-3.3V52.5z"/>
<linearGradient id="SVGID_1_" gradientUnits="userSpaceOnUse" x1="38.0471" y1="-841.369" x2="8.7546" y2="-870.6614" gradientTransform="matrix(1 0 0 -1 0 -826)">
	<stop  offset="0" style="stop-color:#00A0FF"/>
	<stop  offset="1.000000e-02" style="stop-color:#00A1FF"/>
	<stop  offset="0.26" style="stop-color:#00BEFF"/>
	<stop  offset="0.51" style="stop-color:#00D2FF"/>
	<stop  offset="0.76" style="stop-color:#00DFFF"/>
	<stop  offset="1" style="stop-color:#00E3FF"/>
</linearGradient>
<path class="st2" d="M18.2,13.3c-0.5,0.7-0.7,1.6-0.7,2.4v38.6c0,0.9,0.2,1.7,0.9,2.4l0.2,0.2l21.6-21.6v-0.5L18.2,13.3L18.2,13.3z"
	/>
<linearGradient id="SVGID_2_" gradientUnits="userSpaceOnUse" x1="59.0563" y1="-861.261" x2="16.8283" y2="-861.261" gradientTransform="matrix(1 0 0 -1 0 -826)">
	<stop  offset="0" style="stop-color:#FFE000"/>
	<stop  offset="0.41" style="stop-color:#FFBD00"/>
	<stop  offset="0.78" style="stop-color:#FFA500"/>
	<stop  offset="1" style="stop-color:#FF9C00"/>
</linearGradient>
<path class="st3" d="M47.1,42.6L40,35.4v-0.5l7.2-7.2l0.2,0.2l8.6,4.9c2.4,1.4,2.4,3.7,0,5.1l-8.6,4.9L47.1,42.6z"/>
<linearGradient id="SVGID_3_" gradientUnits="userSpaceOnUse" x1="43.319" y1="-865.0752" x2="3.5873" y2="-904.7894" gradientTransform="matrix(1 0 0 -1 0 -826)">
	<stop  offset="0" style="stop-color:#FF3A44"/>
	<stop  offset="1" style="stop-color:#C31162"/>
</linearGradient>
<path class="st4" d="M47.3,42.4L40,35.1L18.2,56.9c1,0.9,2.6,0.9,3.7,0.2L47.3,42.4"/>
<linearGradient id="SVGID_4_" gradientUnits="userSpaceOnUse" x1="12.726" y1="-826.5045" x2="30.4621" y2="-844.2407" gradientTransform="matrix(1 0 0 -1 0 -826)">
	<stop  offset="0" style="stop-color:#32A071"/>
	<stop  offset="7.000000e-02" style="stop-color:#2DA771"/>
	<stop  offset="0.48" style="stop-color:#15CF74"/>
	<stop  offset="0.8" style="stop-color:#06E775"/>
	<stop  offset="1" style="stop-color:#00F076"/>
</linearGradient>
<path class="st5" d="M47.3,27.8L21.8,13.3c-1-0.9-2.6-0.9-3.7,0L40,35.1L47.3,27.8z"/>
<path class="st6" d="M47.1,42.2L21.8,56.7c-1,0.7-2.4,0.7-3.5,0l0,0l-0.2,0.2l0,0l0.2,0.2l0,0c1,0.7,2.4,0.7,3.5,0l25.5-14.5
	L47.1,42.2z"/>
<path class="st7" d="M18.2,56.6c-0.5-0.7-0.9-1.6-0.9-2.4v0.2c0,0.9,0.2,1.7,0.9,2.4V56.6L18.2,56.6z"/>
<path class="st7" d="M55.9,37.4l-8.7,4.9l0.2,0.2l8.6-4.9c1-0.5,1.6-1.4,1.7-2.4l0,0C57.4,36.1,56.7,36.8,55.9,37.4z"/>
<path class="st8" d="M21.8,13.4l34,19.4c0.9,0.5,1.6,1.2,1.7,2.3l0,0c-0.2-1-0.7-2.1-1.7-2.4l-34-19.4c-2.4-1.4-4.4-0.3-4.4,2.4v0.2
	C17.5,13.3,19.4,12,21.8,13.4z"/>
</svg>
