<?xml version="1.0" encoding="utf-8"?>
<!-- Generator: Adobe Illustrator 21.0.0, SVG Export Plug-In . SVG Version: 6.00 Build 0)  -->
<svg version="1.1" id="Слой_1" xmlns="http://www.w3.org/2000/svg" xmlns:xlink="http://www.w3.org/1999/xlink" x="0px" y="0px"
	 viewBox="0 0 420 320" style="enable-background:new 0 0 420 320;" xml:space="preserve">
<style type="text/css">
	.st0{fill:#FFFFFF;}
	.st1{fill:#FF7200;}
</style>
<g>
	<polygon class="st0" points="210.8,168.6 264.4,168.6 264.4,147.8 210.8,147.8 210.8,122.8 271.5,122.8 271.5,101.3 184.3,101.3 
		184.3,216.8 273.7,216.8 273.7,195.3 210.8,195.3 	"/>
	<polygon class="st0" points="381.7,101.3 350.8,152.6 320,101.3 291.6,101.3 336.3,175.5 336.3,216.8 363.1,216.8 363.1,175.9 
		407.9,101.3 	"/>
	<polygon class="st0" points="159.8,101.3 130.1,101.3 79.3,154.9 79.3,187.2 94.5,171.4 131.4,216.8 162.6,216.8 111.9,152.8 	"/>
</g>
<rect x="40.1" y="50.2" class="st0" width="54.8" height="51.1"/>
<g>
	<path class="st1" d="M52.9,127.3H56V165c0.1,0.1,0.2,0.1,0.3,0.2l7.6,6.3c0.4,0.4,0.7,0.9,0.7,1.5c0,0.6-0.3,1.1-0.7,1.5l-7.6,6.3
		c-0.1,0.1-0.2,0.2-0.3,0.2v4.4c0.1,0.1,0.2,0.1,0.3,0.2l7.6,6.3c0.5,0.4,0.7,0.9,0.7,1.5c0,0.6-0.3,1.1-0.7,1.5l-7.6,6.3
		c-0.1,0.1-0.2,0.2-0.3,0.2v5.6c0,1,0.4,1.9,1,2.6l9,10.1c0.8,0.9,2,1.5,3.3,1.5c1.3,0,2.5-0.5,3.3-1.5l9-10.1c0.6-0.7,1-1.6,1-2.6
		v-79.6h2.9v-13.8H52.9V127.3z"/>
	<path class="st1" d="M122.4,47.4L80.4,9.8c-6-5.5-16.1-5.5-22.1,0L16.1,47.7c-6.3,5.5-6.6,9.8-1.1,9.8s10.1,0,10.1,0v39.9
		c0,9.3,7.6,17.3,17.1,17.5h57c8-1.5,14.3-8.6,14.3-17.2V57.5c0,0,4.6,0,10.1,0C129,57.5,128.4,52.9,122.4,47.4z M65.8,98.5H48.9
		V81.6h16.9V98.5z M65.8,74.7H48.9V57.8h16.9V74.7z M89.6,98.5H72.7V81.6h16.9V98.5z M89.6,74.7H72.7V57.8h16.9V74.7z"/>
</g>
<g>
	<path class="st0" d="M77,283.8l-10.6,10.7v15h-8.3v-57.8h8.3V284l31.4-32.3h9.4l-24.7,26l26.3,31.8h-9.7L77,283.8z"/>
	<path class="st0" d="M162,302.3v7.2h-42v-57.8h40.8v7.2h-32.6v17.8h29v7h-29v18.7H162z"/>
	<path class="st0" d="M219.8,302.3v7.2h-42v-57.8h40.8v7.2h-32.6v17.8h29v7h-29v18.7H219.8z"/>
	<path class="st0" d="M275.9,257c4.3,3.6,6.4,8.5,6.4,14.8s-2.1,11.2-6.4,14.8c-4.3,3.6-10.2,5.4-17.7,5.4h-14.3v17.5h-8.3v-57.8
		h22.6C265.7,251.7,271.6,253.5,275.9,257z M270,281.4c2.8-2.2,4.1-5.4,4.1-9.6c0-4.2-1.4-7.4-4.1-9.6c-2.8-2.2-6.7-3.3-12-3.3h-14
		v25.9h14C263.2,284.8,267.2,283.7,270,281.4z"/>
	<path class="st0" d="M339,302.3v7.2h-42v-57.8h40.8v7.2h-32.6v17.8h29v7h-29v18.7H339z"/>
	<path class="st0" d="M393.5,309.5L381,291.7c-1.5,0.1-2.8,0.2-3.6,0.2h-14.3v17.6h-8.3v-57.8h22.6c7.5,0,13.4,1.8,17.7,5.4
		c4.3,3.6,6.4,8.5,6.4,14.8c0,4.5-1.1,8.3-3.3,11.4c-2.2,3.1-5.3,5.4-9.4,6.9l13.7,19.4H393.5z M389.1,281.5
		c2.8-2.3,4.1-5.5,4.1-9.7c0-4.2-1.4-7.4-4.1-9.6c-2.8-2.2-6.7-3.3-12-3.3h-14v26h14C382.4,284.9,386.4,283.7,389.1,281.5z"/>
</g>
</svg>
